<?xml version='1.0' encoding='iso-8859-1'?>
<!DOCTYPE svg PUBLIC '-//W3C//DTD SVG 1.1//EN' 'http://www.w3.org/Graphics/SVG/1.1/DTD/svg11.dtd'>
<!-- Uploaded to: SVG Repo, www.svgrepo.com, Generator: SVG Repo Mixer Tools -->
<svg fill="#000000" height="800px" width="800px" version="1.1" xmlns="http://www.w3.org/2000/svg" viewBox="0 0 417.464 417.464" xmlns:xlink="http://www.w3.org/1999/xlink" enable-background="new 0 0 417.464 417.464">
  <g>
    <path d="m59.495,86.801c-2.64,0-5.22,1.07-7.08,2.93-1.86,1.86-2.93,4.44-2.93,7.07 0,2.63 1.069,5.21 2.93,7.07 1.86,1.86 4.44,2.93 7.08,2.93 2.63,0 5.2-1.07 7.06-2.93 1.87-1.86 2.931-4.44 2.931-7.07 0-2.63-1.061-5.21-2.931-7.07-1.85-1.86-4.43-2.93-7.06-2.93z"/>
    <path d="m59.485,124.111c-2.63,0-5.21,1.07-7.07,2.93-1.86,1.86-2.93,4.44-2.93,7.07s1.069,5.21 2.93,7.07c1.86,1.86 4.44,2.93 7.07,2.93 2.64,0 5.21-1.07 7.069-2.93 1.87-1.86 2.931-4.44 2.931-7.07s-1.061-5.21-2.931-7.07c-1.859-1.86-4.429-2.93-7.069-2.93z"/>
    <path d="m59.485,161.421c-2.63,0-5.21,1.07-7.07,2.93-1.86,1.86-2.93,4.44-2.93,7.07s1.069,5.21 2.93,7.07c1.86,1.86 4.44,2.93 7.07,2.93 2.64,0 5.21-1.07 7.069-2.93 1.87-1.86 2.931-4.44 2.931-7.07s-1.061-5.21-2.931-7.07c-1.859-1.86-4.429-2.93-7.069-2.93z"/>
    <path d="m59.485,198.731c-2.63,0-5.21,1.07-7.07,2.93-1.86,1.86-2.93,4.44-2.93,7.07s1.069,5.21 2.93,7.07 4.44,2.93 7.07,2.93c2.64,0 5.21-1.07 7.069-2.93 1.87-1.86 2.931-4.44 2.931-7.07s-1.061-5.21-2.931-7.07c-1.859-1.86-4.429-2.93-7.069-2.93z"/>
    <path d="m59.485,236.041c-2.63,0-5.2,1.07-7.07,2.93-1.86,1.86-2.93,4.44-2.93,7.07 0,2.64 1.069,5.21 2.93,7.07s4.44,2.93 7.07,2.93c2.64,0 5.21-1.07 7.069-2.93 1.87-1.86 2.931-4.44 2.931-7.07 0-2.63-1.061-5.21-2.931-7.07-1.859-1.86-4.439-2.93-7.069-2.93z"/>
    <path d="m59.485,273.351c-2.63,0-5.21,1.07-7.07,2.93-1.86,1.86-2.93,4.44-2.93,7.07 0,2.64 1.069,5.21 2.93,7.07 1.87,1.86 4.44,2.93 7.07,2.93s5.21-1.07 7.069-2.93c1.87-1.86 2.931-4.44 2.931-7.07 0-2.63-1.061-5.21-2.931-7.07-1.859-1.86-4.429-2.93-7.069-2.93z"/>
    <path d="m59.485,310.661c-2.63,0-5.21,1.07-7.07,2.93s-2.93,4.44-2.93,7.07c0,2.64 1.069,5.21 2.93,7.07 1.87,1.87 4.44,2.93 7.07,2.93s5.21-1.06 7.069-2.93c1.87-1.86 2.931-4.44 2.931-7.07 0-2.63-1.061-5.21-2.931-7.07-1.859-1.86-4.429-2.93-7.069-2.93z"/>
    <path d="m59.485,347.971c-2.63,0-5.21,1.07-7.07,2.93s-2.93,4.44-2.93,7.07c0,2.64 1.069,5.21 2.93,7.07 1.87,1.87 4.44,2.93 7.07,2.93s5.21-1.06 7.069-2.93c1.87-1.86 2.931-4.43 2.931-7.07 0-2.63-1.061-5.21-2.931-7.07-1.859-1.86-4.429-2.93-7.069-2.93z"/>
    <path d="m96.795,106.801c2.641,0 5.21-1.07 7.08-2.93 1.86-1.86 2.92-4.44 2.92-7.07 0-2.63-1.06-5.21-2.92-7.07-1.87-1.86-4.439-2.93-7.08-2.93-2.63,0-5.21,1.07-7.069,2.93-1.86,1.86-2.931,4.44-2.931,7.07 0,2.63 1.07,5.21 2.931,7.07 1.859,1.86 4.439,2.93 7.069,2.93z"/>
    <path d="m96.795,124.111c-2.63,0-5.21,1.07-7.069,2.93-1.86,1.86-2.931,4.44-2.931,7.07s1.07,5.21 2.931,7.07c1.859,1.86 4.439,2.93 7.069,2.93 2.641,0 5.21-1.07 7.07-2.93 1.87-1.86 2.939-4.44 2.939-7.07s-1.069-5.21-2.939-7.07c-1.86-1.86-4.429-2.93-7.07-2.93z"/>
    <path d="m96.795,161.421c-2.63,0-5.21,1.07-7.069,2.93-1.86,1.86-2.931,4.44-2.931,7.07s1.07,5.21 2.931,7.07c1.859,1.86 4.439,2.93 7.069,2.93 2.641,0 5.21-1.07 7.07-2.93 1.87-1.86 2.939-4.44 2.939-7.07s-1.069-5.21-2.939-7.07c-1.86-1.86-4.429-2.93-7.07-2.93z"/>
    <path d="m96.795,198.731c-2.63,0-5.21,1.07-7.069,2.93-1.86,1.86-2.931,4.44-2.931,7.07s1.07,5.21 2.931,7.07c1.859,1.86 4.439,2.93 7.069,2.93 2.641,0 5.21-1.07 7.07-2.93 1.87-1.86 2.939-4.44 2.939-7.07s-1.069-5.21-2.939-7.07c-1.86-1.86-4.429-2.93-7.07-2.93z"/>
    <path d="m96.795,236.041c-2.63,0-5.21,1.07-7.069,2.93-1.86,1.86-2.931,4.44-2.931,7.07 0,2.64 1.07,5.21 2.931,7.07 1.859,1.86 4.439,2.93 7.069,2.93 2.641,0 5.21-1.07 7.07-2.93 1.87-1.86 2.939-4.44 2.939-7.07 0-2.63-1.069-5.21-2.939-7.07-1.86-1.86-4.429-2.93-7.07-2.93z"/>
    <path d="m96.795,273.351c-2.63,0-5.21,1.07-7.069,2.93-1.86,1.86-2.931,4.44-2.931,7.07 0,2.64 1.07,5.21 2.931,7.07 1.859,1.86 4.439,2.93 7.069,2.93 2.641,0 5.21-1.07 7.07-2.93 1.87-1.86 2.939-4.44 2.939-7.07 0-2.63-1.069-5.2-2.939-7.07-1.86-1.86-4.429-2.93-7.07-2.93z"/>
    <path d="m96.795,310.661c-2.63,0-5.21,1.07-7.069,2.93-1.86,1.86-2.931,4.44-2.931,7.07 0,2.64 1.07,5.21 2.931,7.07 1.859,1.86 4.439,2.93 7.069,2.93 2.641,0 5.21-1.07 7.07-2.93 1.87-1.86 2.939-4.44 2.939-7.07 0-2.63-1.069-5.2-2.939-7.07-1.86-1.86-4.429-2.93-7.07-2.93z"/>
    <path d="m96.795,347.971c-2.63,0-5.21,1.07-7.069,2.93-1.86,1.86-2.931,4.44-2.931,7.07 0,2.64 1.07,5.21 2.931,7.07 1.859,1.87 4.439,2.93 7.069,2.93 2.641,0 5.21-1.06 7.07-2.93 1.87-1.86 2.939-4.44 2.939-7.07 0-2.63-1.069-5.2-2.939-7.07-1.86-1.86-4.429-2.93-7.07-2.93z"/>
    <path d="m134.115,106.801c2.63,0 5.21-1.07 7.07-2.93 1.859-1.86 2.92-4.44 2.92-7.07 0-2.63-1.061-5.21-2.92-7.07-1.87-1.86-4.44-2.93-7.07-2.93-2.64,0-5.21,1.07-7.07,2.93-1.87,1.86-2.93,4.44-2.93,7.07 0,2.63 1.06,5.21 2.93,7.07 1.851,1.86 4.431,2.93 7.07,2.93z"/>
    <path d="m134.115,124.111c-2.64,0-5.21,1.07-7.07,2.93-1.87,1.86-2.93,4.43-2.93,7.07s1.06,5.21 2.93,7.07c1.86,1.86 4.431,2.93 7.07,2.93 2.63,0 5.2-1.07 7.07-2.93 1.859-1.86 2.93-4.44 2.93-7.07s-1.07-5.21-2.93-7.07c-1.87-1.86-4.44-2.93-7.07-2.93z"/>
    <path d="m134.115,161.421c-2.64,0-5.21,1.07-7.07,2.93-1.87,1.86-2.93,4.43-2.93,7.07 0,2.63 1.06,5.21 2.93,7.07 1.86,1.86 4.431,2.93 7.07,2.93 2.63,0 5.2-1.07 7.07-2.93 1.859-1.86 2.93-4.44 2.93-7.07s-1.07-5.21-2.93-7.07c-1.86-1.86-4.44-2.93-7.07-2.93z"/>
    <path d="m134.115,198.731c-2.64,0-5.22,1.07-7.07,2.93-1.87,1.86-2.93,4.44-2.93,7.07s1.06,5.21 2.93,7.07c1.86,1.86 4.431,2.93 7.07,2.93 2.63,0 5.2-1.07 7.07-2.93 1.859-1.86 2.93-4.44 2.93-7.07s-1.07-5.21-2.93-7.07c-1.86-1.86-4.44-2.93-7.07-2.93z"/>
    <path d="m134.115,236.041c-2.64,0-5.22,1.07-7.07,2.93-1.87,1.86-2.93,4.44-2.93,7.07 0,2.64 1.06,5.21 2.93,7.07 1.86,1.86 4.431,2.93 7.07,2.93 2.63,0 5.21-1.07 7.07-2.93 1.859-1.86 2.93-4.44 2.93-7.07 0-2.63-1.07-5.21-2.93-7.07-1.86-1.86-4.44-2.93-7.07-2.93z"/>
    <path d="m134.115,273.351c-2.64,0-5.21,1.07-7.07,2.93-1.87,1.86-2.93,4.44-2.93,7.07 0,2.64 1.06,5.21 2.93,7.07 1.86,1.87 4.431,2.93 7.07,2.93 2.63,0 5.2-1.06 7.07-2.93 1.859-1.86 2.93-4.44 2.93-7.07 0-2.63-1.07-5.21-2.93-7.07-1.86-1.86-4.44-2.93-7.07-2.93z"/>
    <path d="m134.115,310.661c-2.64,0-5.21,1.07-7.07,2.93-1.87,1.86-2.93,4.44-2.93,7.07 0,2.64 1.06,5.21 2.93,7.07 1.86,1.87 4.431,2.93 7.07,2.93 2.63,0 5.21-1.06 7.07-2.93 1.859-1.86 2.93-4.43 2.93-7.07 0-2.63-1.07-5.21-2.93-7.07-1.86-1.86-4.44-2.93-7.07-2.93z"/>
    <path d="m134.115,347.971c-2.64,0-5.21,1.07-7.07,2.93-1.87,1.86-2.93,4.44-2.93,7.07 0,2.64 1.06,5.22 2.93,7.07 1.86,1.87 4.431,2.93 7.07,2.93 2.63,0 5.21-1.06 7.07-2.93 1.859-1.86 2.93-4.43 2.93-7.07 0-2.63-1.07-5.21-2.93-7.07-1.87-1.86-4.44-2.93-7.07-2.93z"/>
    <path d="m171.425,86.801c-2.63,0-5.21,1.07-7.069,2.93-1.86,1.86-2.931,4.44-2.931,7.07 0,2.63 1.07,5.21 2.931,7.07 1.859,1.86 4.439,2.93 7.069,2.93s5.21-1.07 7.07-2.93c1.86-1.86 2.93-4.44 2.93-7.07 0-2.63-1.069-5.21-2.93-7.07-1.86-1.86-4.44-2.93-7.07-2.93z"/>
    <path d="m171.425,124.111c-2.64,0-5.21,1.07-7.08,2.93-1.859,1.86-2.92,4.44-2.92,7.07s1.061,5.21 2.92,7.07c1.87,1.86 4.44,2.93 7.08,2.93 2.63,0 5.21-1.07 7.07-2.93 1.86-1.86 2.93-4.44 2.93-7.07s-1.069-5.21-2.93-7.07c-1.86-1.86-4.44-2.93-7.07-2.93z"/>
    <path d="m171.425,161.421c-2.64,0-5.21,1.07-7.08,2.93-1.859,1.86-2.92,4.44-2.92,7.07s1.061,5.21 2.92,7.07c1.87,1.86 4.45,2.93 7.08,2.93s5.2-1.07 7.07-2.93c1.86-1.86 2.93-4.44 2.93-7.07s-1.069-5.21-2.93-7.07c-1.86-1.86-4.44-2.93-7.07-2.93z"/>
    <path d="m171.425,198.731c-2.64,0-5.21,1.07-7.08,2.93-1.859,1.86-2.92,4.44-2.92,7.07s1.061,5.21 2.92,7.07c1.87,1.86 4.44,2.93 7.08,2.93 2.63,0 5.21-1.07 7.07-2.93s2.93-4.44 2.93-7.07-1.069-5.21-2.93-7.07c-1.86-1.86-4.44-2.93-7.07-2.93z"/>
    <path d="m171.425,236.041c-2.64,0-5.21,1.07-7.08,2.93-1.859,1.86-2.92,4.44-2.92,7.07 0,2.63 1.061,5.21 2.92,7.07 1.87,1.86 4.44,2.93 7.08,2.93 2.63,0 5.21-1.07 7.07-2.93s2.93-4.44 2.93-7.07c0-2.63-1.069-5.21-2.93-7.07-1.86-1.86-4.44-2.93-7.07-2.93z"/>
    <path d="m171.425,273.351c-2.64,0-5.21,1.07-7.08,2.93-1.859,1.86-2.92,4.44-2.92,7.07 0,2.64 1.061,5.21 2.92,7.07 1.87,1.86 4.44,2.93 7.08,2.93 2.63,0 5.21-1.07 7.07-2.93s2.93-4.43 2.93-7.07c0-2.63-1.069-5.21-2.93-7.07-1.87-1.86-4.44-2.93-7.07-2.93z"/>
    <path d="m171.425,310.661c-2.64,0-5.21,1.07-7.08,2.93-1.859,1.87-2.92,4.44-2.92,7.07 0,2.64 1.061,5.21 2.92,7.07 1.87,1.86 4.44,2.93 7.08,2.93 2.63,0 5.21-1.07 7.07-2.93s2.93-4.43 2.93-7.07c0-2.63-1.069-5.21-2.93-7.07s-4.44-2.93-7.07-2.93z"/>
    <path d="m171.425,347.971c-2.64,0-5.21,1.07-7.08,2.93-1.859,1.87-2.92,4.44-2.92,7.07 0,2.63 1.061,5.21 2.92,7.08 1.87,1.86 4.45,2.92 7.08,2.92s5.2-1.06 7.07-2.92c1.86-1.87 2.93-4.44 2.93-7.08 0-2.63-1.069-5.21-2.93-7.07s-4.44-2.93-7.07-2.93z"/>
    <path d="m208.735,86.801c-2.63,0-5.21,1.07-7.08,2.93-1.86,1.86-2.92,4.44-2.92,7.07 0,2.63 1.06,5.21 2.92,7.07 1.87,1.86 4.45,2.93 7.08,2.93s5.21-1.07 7.069-2.93c1.86-1.86 2.931-4.44 2.931-7.07 0-2.63-1.07-5.21-2.931-7.07-1.859-1.86-4.439-2.93-7.069-2.93z"/>
    <path d="m208.735,124.111c-2.641,0-5.21,1.07-7.07,2.93-1.87,1.86-2.93,4.44-2.93,7.07s1.06,5.21 2.93,7.07c1.86,1.86 4.43,2.93 7.07,2.93 2.63,0 5.21-1.07 7.069-2.93 1.86-1.86 2.931-4.44 2.931-7.07s-1.07-5.21-2.931-7.07c-1.868-1.86-4.439-2.93-7.069-2.93z"/>
    <path d="m208.735,161.421c-2.641,0-5.21,1.07-7.07,2.93-1.87,1.86-2.93,4.44-2.93,7.07s1.06,5.21 2.93,7.07c1.86,1.86 4.43,2.93 7.07,2.93 2.63,0 5.2-1.07 7.069-2.93 1.86-1.86 2.931-4.44 2.931-7.07s-1.07-5.21-2.931-7.07c-1.868-1.86-4.439-2.93-7.069-2.93z"/>
    <path d="m208.735,198.731c-2.641,0-5.21,1.07-7.07,2.93-1.87,1.86-2.93,4.44-2.93,7.07s1.06,5.21 2.93,7.07c1.86,1.86 4.43,2.93 7.07,2.93 2.63,0 5.2-1.07 7.069-2.93 1.86-1.86 2.931-4.44 2.931-7.07s-1.07-5.21-2.931-7.07c-1.868-1.86-4.439-2.93-7.069-2.93z"/>
    <path d="m208.735,236.041c-2.641,0-5.21,1.07-7.07,2.93-1.87,1.86-2.93,4.44-2.93,7.07 0,2.63 1.06,5.21 2.93,7.07 1.86,1.86 4.43,2.93 7.07,2.93 2.63,0 5.2-1.07 7.069-2.93 1.86-1.86 2.931-4.43 2.931-7.07 0-2.63-1.07-5.21-2.931-7.07-1.868-1.86-4.439-2.93-7.069-2.93z"/>
    <path d="m208.735,273.351c-2.641,0-5.21,1.07-7.07,2.93-1.87,1.86-2.93,4.44-2.93,7.07 0,2.63 1.06,5.21 2.93,7.07 1.86,1.86 4.43,2.93 7.07,2.93 2.63,0 5.21-1.07 7.069-2.93 1.86-1.86 2.931-4.43 2.931-7.07 0-2.63-1.07-5.21-2.931-7.07-1.859-1.86-4.439-2.93-7.069-2.93z"/>
    <path d="m208.735,310.661c-2.641,0-5.22,1.07-7.07,2.93-1.87,1.86-2.93,4.44-2.93,7.07 0,2.63 1.06,5.21 2.93,7.07 1.851,1.86 4.43,2.93 7.07,2.93 2.63,0 5.21-1.07 7.069-2.93 1.86-1.86 2.931-4.43 2.931-7.07 0-2.63-1.07-5.21-2.931-7.07-1.859-1.86-4.439-2.93-7.069-2.93z"/>
    <path d="m208.735,347.971c-2.641,0-5.21,1.07-7.07,2.93-1.87,1.86-2.93,4.44-2.93,7.07 0,2.63 1.06,5.21 2.93,7.08 1.86,1.86 4.43,2.92 7.07,2.92 2.63,0 5.2-1.06 7.069-2.92 1.86-1.87 2.931-4.45 2.931-7.08 0-2.63-1.07-5.21-2.931-7.07-1.868-1.86-4.439-2.93-7.069-2.93z"/>
    <path d="m246.045,86.801c-2.64,0-5.21,1.07-7.069,2.93-1.87,1.86-2.931,4.44-2.931,7.07 0,2.63 1.061,5.21 2.931,7.07 1.859,1.86 4.43,2.93 7.069,2.93 2.63,0 5.21-1.07 7.07-2.93 1.86-1.86 2.93-4.44 2.93-7.07 0-2.63-1.069-5.21-2.93-7.07-1.86-1.86-4.44-2.93-7.07-2.93z"/>
    <path d="m246.045,124.111c-2.64,0-5.21,1.07-7.069,2.93-1.87,1.86-2.931,4.44-2.931,7.07s1.061,5.21 2.931,7.07c1.859,1.86 4.439,2.93 7.069,2.93s5.2-1.07 7.07-2.93c1.86-1.86 2.93-4.44 2.93-7.07s-1.069-5.21-2.93-7.07c-1.86-1.86-4.44-2.93-7.07-2.93z"/>
    <path d="m246.045,161.421c-2.63,0-5.21,1.07-7.069,2.93-1.87,1.86-2.931,4.44-2.931,7.07s1.061,5.21 2.931,7.07c1.859,1.86 4.43,2.93 7.069,2.93 2.63,0 5.21-1.07 7.07-2.93 1.86-1.86 2.93-4.44 2.93-7.07s-1.069-5.21-2.93-7.07c-1.87-1.86-4.44-2.93-7.07-2.93z"/>
    <path d="m246.045,198.731c-2.64,0-5.21,1.07-7.069,2.93-1.87,1.86-2.931,4.44-2.931,7.07s1.061,5.21 2.931,7.07c1.859,1.86 4.43,2.93 7.069,2.93 2.63,0 5.21-1.07 7.07-2.93s2.93-4.44 2.93-7.07-1.069-5.21-2.93-7.07c-1.86-1.86-4.44-2.93-7.07-2.93z"/>
    <path d="m246.045,236.041c-2.64,0-5.21,1.07-7.069,2.93-1.87,1.86-2.931,4.44-2.931,7.07 0,2.63 1.061,5.21 2.931,7.07 1.859,1.86 4.439,2.93 7.069,2.93s5.2-1.07 7.07-2.93c1.86-1.86 2.93-4.44 2.93-7.07 0-2.63-1.069-5.21-2.93-7.07-1.86-1.86-4.44-2.93-7.07-2.93z"/>
    <path d="m246.045,273.351c-2.64,0-5.21,1.07-7.069,2.93-1.87,1.86-2.931,4.44-2.931,7.07 0,2.63 1.061,5.21 2.931,7.07 1.859,1.86 4.439,2.93 7.069,2.93s5.21-1.07 7.07-2.93 2.93-4.44 2.93-7.07c0-2.63-1.069-5.21-2.93-7.07-1.86-1.86-4.44-2.93-7.07-2.93z"/>
    <path d="m246.045,310.661c-2.63,0-5.21,1.07-7.069,2.93-1.87,1.86-2.931,4.44-2.931,7.07 0,2.64 1.061,5.21 2.931,7.07 1.859,1.86 4.43,2.93 7.069,2.93 2.63,0 5.21-1.07 7.07-2.93s2.93-4.43 2.93-7.07c0-2.63-1.069-5.21-2.93-7.07-1.87-1.86-4.44-2.93-7.07-2.93z"/>
    <path d="m246.045,347.971c-2.64,0-5.21,1.07-7.069,2.93-1.87,1.86-2.931,4.44-2.931,7.07 0,2.63 1.061,5.21 2.931,7.07 1.859,1.87 4.43,2.93 7.069,2.93 2.63,0 5.21-1.06 7.07-2.93 1.86-1.86 2.93-4.44 2.93-7.07 0-2.63-1.069-5.21-2.93-7.07s-4.44-2.93-7.07-2.93z"/>
    <path d="m283.355,86.801c-2.63,0-5.21,1.07-7.07,2.93-1.86,1.86-2.93,4.44-2.93,7.07 0,2.63 1.069,5.21 2.93,7.07 1.86,1.86 4.44,2.93 7.07,2.93s5.21-1.07 7.069-2.93c1.86-1.86 2.931-4.44 2.931-7.07 0-2.63-1.07-5.21-2.931-7.07-1.859-1.86-4.439-2.93-7.069-2.93z"/>
    <path d="m283.355,124.111c-2.63,0-5.21,1.07-7.07,2.93-1.86,1.86-2.93,4.44-2.93,7.07s1.069,5.21 2.93,7.07c1.86,1.86 4.44,2.93 7.07,2.93s5.21-1.07 7.069-2.93c1.86-1.86 2.931-4.44 2.931-7.07s-1.07-5.21-2.931-7.07c-1.859-1.86-4.439-2.93-7.069-2.93z"/>
    <path d="m283.355,161.421c-2.641,0-5.21,1.07-7.07,2.93-1.86,1.86-2.93,4.44-2.93,7.07s1.069,5.21 2.93,7.07c1.86,1.86 4.44,2.93 7.07,2.93s5.21-1.07 7.069-2.93c1.86-1.86 2.931-4.44 2.931-7.07s-1.07-5.21-2.931-7.07c-1.859-1.86-4.439-2.93-7.069-2.93z"/>
    <path d="m283.355,198.731c-2.641,0-5.21,1.07-7.07,2.93-1.86,1.86-2.93,4.44-2.93,7.07s1.069,5.21 2.93,7.07 4.44,2.93 7.07,2.93 5.21-1.07 7.069-2.93c1.86-1.86 2.931-4.43 2.931-7.07 0-2.63-1.07-5.21-2.931-7.07-1.859-1.86-4.439-2.93-7.069-2.93z"/>
    <path d="m283.355,236.041c-2.641,0-5.21,1.07-7.07,2.93-1.86,1.86-2.93,4.44-2.93,7.07 0,2.63 1.069,5.21 2.93,7.07s4.44,2.93 7.07,2.93 5.21-1.07 7.069-2.93c1.86-1.86 2.931-4.43 2.931-7.07 0-2.63-1.07-5.21-2.931-7.07-1.859-1.86-4.439-2.93-7.069-2.93z"/>
    <path d="m283.355,273.351c-2.63,0-5.21,1.07-7.07,2.93-1.86,1.86-2.93,4.44-2.93,7.07 0,2.63 1.069,5.21 2.93,7.07s4.44,2.93 7.07,2.93 5.21-1.07 7.069-2.93c1.86-1.86 2.931-4.43 2.931-7.07 0-2.63-1.07-5.21-2.931-7.07-1.859-1.86-4.439-2.93-7.069-2.93z"/>
    <path d="m283.355,310.661c-2.641,0-5.21,1.07-7.07,2.93s-2.93,4.44-2.93,7.07c0,2.64 1.069,5.21 2.93,7.07s4.44,2.93 7.07,2.93 5.21-1.07 7.069-2.93c1.86-1.86 2.931-4.43 2.931-7.07 0-2.63-1.07-5.21-2.931-7.07-1.859-1.86-4.439-2.93-7.069-2.93z"/>
    <path d="m283.355,347.971c-2.641,0-5.21,1.07-7.07,2.93s-2.93,4.44-2.93,7.07c0,2.64 1.069,5.21 2.93,7.07 1.86,1.87 4.44,2.93 7.07,2.93s5.21-1.06 7.069-2.93c1.86-1.86 2.931-4.43 2.931-7.07 0-2.63-1.07-5.21-2.931-7.07-1.859-1.86-4.439-2.93-7.069-2.93z"/>
    <path d="m320.665,86.801c-2.63,0-5.21,1.07-7.07,2.93-1.859,1.86-2.93,4.44-2.93,7.07 0,2.63 1.07,5.21 2.93,7.07 1.86,1.86 4.44,2.93 7.07,2.93s5.21-1.07 7.07-2.93c1.859-1.86 2.93-4.44 2.93-7.07 0-2.64-1.07-5.21-2.93-7.07-1.86-1.86-4.44-2.93-7.07-2.93z"/>
    <path d="m320.665,124.111c-2.63,0-5.21,1.07-7.07,2.93-1.859,1.86-2.93,4.44-2.93,7.07s1.07,5.21 2.93,7.07c1.86,1.86 4.44,2.93 7.07,2.93s5.21-1.07 7.07-2.93c1.859-1.86 2.93-4.44 2.93-7.07s-1.07-5.21-2.93-7.07c-1.86-1.86-4.44-2.93-7.07-2.93z"/>
    <path d="m320.665,161.421c-2.63,0-5.21,1.07-7.07,2.93-1.859,1.86-2.93,4.44-2.93,7.07s1.07,5.21 2.93,7.07c1.86,1.86 4.44,2.93 7.07,2.93s5.21-1.07 7.07-2.93c1.859-1.86 2.93-4.44 2.93-7.07s-1.07-5.21-2.93-7.07c-1.86-1.86-4.44-2.93-7.07-2.93z"/>
    <path d="m320.665,198.731c-2.63,0-5.21,1.07-7.07,2.93-1.859,1.86-2.93,4.44-2.93,7.07s1.07,5.21 2.93,7.07c1.86,1.86 4.44,2.93 7.07,2.93s5.21-1.07 7.07-2.93c1.859-1.86 2.93-4.44 2.93-7.07s-1.07-5.21-2.93-7.07c-1.86-1.86-4.44-2.93-7.07-2.93z"/>
    <path d="m320.665,236.041c-2.63,0-5.21,1.07-7.07,2.93-1.859,1.86-2.93,4.44-2.93,7.07 0,2.63 1.07,5.21 2.93,7.07 1.86,1.86 4.44,2.93 7.07,2.93s5.21-1.07 7.07-2.93c1.859-1.86 2.93-4.44 2.93-7.07 0-2.63-1.07-5.21-2.93-7.07-1.86-1.86-4.44-2.93-7.07-2.93z"/>
    <path d="m320.665,273.351c-2.63,0-5.21,1.07-7.07,2.93-1.859,1.86-2.93,4.44-2.93,7.07 0,2.64 1.07,5.21 2.93,7.07 1.86,1.87 4.44,2.93 7.07,2.93s5.21-1.06 7.07-2.93c1.859-1.86 2.93-4.44 2.93-7.07 0-2.63-1.07-5.21-2.93-7.07-1.86-1.86-4.44-2.93-7.07-2.93z"/>
    <path d="m320.665,310.661c-2.63,0-5.21,1.07-7.07,2.93-1.859,1.86-2.93,4.44-2.93,7.07 0,2.64 1.07,5.21 2.93,7.07 1.86,1.87 4.44,2.93 7.07,2.93s5.21-1.06 7.07-2.93c1.859-1.86 2.93-4.43 2.93-7.07 0-2.63-1.07-5.21-2.93-7.07-1.86-1.86-4.44-2.93-7.07-2.93z"/>
    <path d="m320.665,347.971c-2.63,0-5.21,1.07-7.07,2.93-1.859,1.86-2.93,4.44-2.93,7.07 0,2.64 1.07,5.21 2.93,7.07 1.86,1.87 4.44,2.93 7.07,2.93s5.21-1.06 7.07-2.93c1.859-1.86 2.93-4.43 2.93-7.07 0-2.63-1.07-5.21-2.93-7.07-1.86-1.86-4.44-2.93-7.07-2.93z"/>
    <path d="m357.976,86.801c-2.631,0-5.21,1.07-7.07,2.93-1.86,1.86-2.93,4.44-2.93,7.07 0,2.63 1.069,5.21 2.93,7.07 1.86,1.86 4.439,2.93 7.07,2.93 2.63,0 5.21-1.07 7.069-2.93 1.86-1.86 2.931-4.44 2.931-7.07 0-2.63-1.07-5.21-2.931-7.07-1.859-1.86-4.44-2.93-7.069-2.93z"/>
    <path d="m357.976,124.111c-2.631,0-5.21,1.07-7.07,2.93-1.86,1.86-2.93,4.44-2.93,7.07s1.069,5.21 2.93,7.07c1.86,1.86 4.439,2.93 7.07,2.93 2.63,0 5.21-1.07 7.069-2.93 1.86-1.86 2.931-4.44 2.931-7.07s-1.07-5.21-2.931-7.07c-1.859-1.86-4.44-2.93-7.069-2.93z"/>
    <path d="m357.976,161.421c-2.631,0-5.21,1.07-7.07,2.93-1.86,1.86-2.93,4.44-2.93,7.07s1.069,5.21 2.93,7.07c1.86,1.86 4.439,2.93 7.07,2.93 2.63,0 5.21-1.07 7.069-2.93 1.86-1.86 2.931-4.44 2.931-7.07s-1.07-5.21-2.931-7.07c-1.859-1.86-4.44-2.93-7.069-2.93z"/>
    <path d="m357.976,198.731c-2.631,0-5.21,1.07-7.07,2.93-1.86,1.86-2.93,4.44-2.93,7.07s1.069,5.21 2.93,7.07 4.439,2.93 7.07,2.93c2.63,0 5.21-1.07 7.069-2.93 1.86-1.86 2.931-4.44 2.931-7.07s-1.07-5.21-2.931-7.07c-1.859-1.86-4.44-2.93-7.069-2.93z"/>
    <path d="m357.976,236.041c-2.631,0-5.21,1.07-7.07,2.93-1.86,1.86-2.93,4.44-2.93,7.07 0,2.64 1.069,5.21 2.93,7.07s4.439,2.93 7.07,2.93c2.63,0 5.21-1.07 7.069-2.93 1.86-1.86 2.931-4.44 2.931-7.07 0-2.63-1.07-5.21-2.931-7.07-1.859-1.86-4.44-2.93-7.069-2.93z"/>
    <path d="m357.976,273.351c-2.631,0-5.21,1.07-7.07,2.93-1.86,1.86-2.93,4.44-2.93,7.07 0,2.64 1.069,5.21 2.93,7.07s4.439,2.93 7.07,2.93c2.63,0 5.21-1.07 7.069-2.93 1.86-1.86 2.931-4.44 2.931-7.07 0-2.63-1.07-5.21-2.931-7.07-1.859-1.86-4.44-2.93-7.069-2.93z"/>
    <path d="m357.976,310.661c-2.631,0-5.21,1.07-7.07,2.93s-2.93,4.44-2.93,7.07c0,2.64 1.069,5.21 2.93,7.07 1.86,1.87 4.439,2.93 7.07,2.93 2.63,0 5.21-1.06 7.069-2.93 1.86-1.86 2.931-4.44 2.931-7.07 0-2.63-1.07-5.21-2.931-7.07-1.859-1.86-4.44-2.93-7.069-2.93z"/>
    <path d="m357.976,347.971c-2.631,0-5.21,1.07-7.07,2.93s-2.93,4.44-2.93,7.07c0,2.64 1.069,5.21 2.93,7.08 1.86,1.86 4.439,2.92 7.07,2.92 2.63,0 5.21-1.06 7.069-2.92 1.86-1.87 2.931-4.45 2.931-7.08 0-2.63-1.07-5.21-2.931-7.07-1.859-1.86-4.44-2.93-7.069-2.93z"/>
    <path d="m59.485,49.491c-2.63,0-5.21,1.07-7.07,2.93s-2.93,4.43-2.93,7.07c0,2.63 1.069,5.21 2.93,7.07 1.86,1.86 4.44,2.93 7.07,2.93 2.64,0 5.21-1.07 7.069-2.93 1.87-1.86 2.931-4.44 2.931-7.07 0-2.63-1.061-5.21-2.931-7.07-1.859-1.86-4.429-2.93-7.069-2.93z"/>
    <path d="m96.795,49.491c-2.63,0-5.21,1.07-7.069,2.93-1.86,1.86-2.931,4.44-2.931,7.07 0,2.63 1.07,5.21 2.931,7.07 1.859,1.86 4.439,2.93 7.069,2.93 2.641,0 5.21-1.07 7.07-2.93 1.87-1.86 2.939-4.44 2.939-7.07 0-2.63-1.069-5.21-2.939-7.07-1.86-1.86-4.429-2.93-7.07-2.93z"/>
    <path d="m134.115,49.491c-2.64,0-5.21,1.07-7.07,2.93-1.87,1.86-2.93,4.44-2.93,7.07 0,2.63 1.06,5.21 2.93,7.07 1.851,1.86 4.431,2.93 7.07,2.93 2.63,0 5.21-1.07 7.07-2.93 1.859-1.86 2.93-4.44 2.93-7.07 0-2.63-1.07-5.21-2.93-7.07-1.87-1.86-4.44-2.93-7.07-2.93z"/>
    <path d="m171.425,49.491c-2.64,0-5.21,1.07-7.08,2.93-1.859,1.86-2.92,4.44-2.92,7.07 0,2.63 1.061,5.21 2.92,7.07 1.87,1.86 4.44,2.93 7.08,2.93 2.63,0 5.21-1.07 7.07-2.93 1.86-1.86 2.93-4.44 2.93-7.07 0-2.63-1.069-5.21-2.93-7.07s-4.44-2.93-7.07-2.93z"/>
    <path d="m208.735,49.491c-2.641,0-5.21,1.07-7.07,2.93-1.87,1.86-2.93,4.44-2.93,7.07 0,2.63 1.06,5.21 2.93,7.07 1.86,1.86 4.43,2.93 7.07,2.93 2.63,0 5.2-1.07 7.069-2.93 1.86-1.86 2.931-4.44 2.931-7.07 0-2.63-1.07-5.21-2.931-7.07-1.859-1.86-4.439-2.93-7.069-2.93z"/>
    <path d="m246.045,49.491c-2.64,0-5.21,1.07-7.069,2.93-1.87,1.86-2.931,4.44-2.931,7.07 0,2.63 1.061,5.21 2.931,7.07 1.859,1.86 4.43,2.93 7.069,2.93 2.63,0 5.21-1.07 7.07-2.93 1.86-1.86 2.93-4.44 2.93-7.07 0-2.63-1.069-5.21-2.93-7.07s-4.44-2.93-7.07-2.93z"/>
    <path d="m283.355,49.491c-2.63,0-5.21,1.07-7.07,2.93s-2.93,4.44-2.93,7.07c0,2.63 1.069,5.21 2.93,7.07 1.86,1.86 4.43,2.93 7.07,2.93 2.63,0 5.21-1.07 7.069-2.93 1.86-1.86 2.931-4.44 2.931-7.07 0-2.64-1.07-5.21-2.931-7.07-1.859-1.86-4.439-2.93-7.069-2.93z"/>
    <path d="m320.665,49.491c-2.63,0-5.21,1.07-7.07,2.93-1.859,1.86-2.93,4.43-2.93,7.07 0,2.63 1.07,5.21 2.93,7.07 1.86,1.86 4.44,2.93 7.07,2.93s5.21-1.07 7.07-2.93c1.859-1.86 2.93-4.44 2.93-7.07 0-2.63-1.07-5.21-2.93-7.07-1.86-1.86-4.44-2.93-7.07-2.93z"/>
    <path d="m357.976,49.491c-2.631,0-5.21,1.07-7.07,2.93s-2.93,4.43-2.93,7.07c0,2.63 1.069,5.21 2.93,7.07 1.86,1.86 4.439,2.93 7.07,2.93 2.63,0 5.21-1.07 7.069-2.93 1.86-1.86 2.931-4.44 2.931-7.07 0-2.63-1.07-5.21-2.931-7.07-1.859-1.86-4.44-2.93-7.069-2.93z"/>
    <path d="m416.707,350.203l-8.424-20.403 8.424-20.401c1.009-2.444 1.009-5.188 0-7.633l-8.424-20.401 8.424-20.401c1.009-2.445 1.009-5.189 0-7.634l-8.424-20.398 8.424-20.397c1.009-2.444 1.009-5.189-0.001-7.634l-8.423-20.395 8.424-20.398c1.009-2.444 1.009-5.189 0-7.634l-8.424-20.399 8.424-20.398c1.009-2.444 1.009-5.189 0-7.634l-8.424-20.397 8.424-20.398c1.009-2.445 1.009-5.189 0-7.634l-8.629-20.892 7.479-24.317c1.088-3.54 0.132-7.392-2.487-10.011-2.62-2.619-6.471-3.576-10.011-2.487l-24.322,7.48-20.901-8.629c-2.445-1.009-5.189-1.009-7.633,0l-20.402,8.424-20.401-8.424c-2.442-1.01-5.188-1.009-7.633,0l-20.402,8.424-20.4-8.424c-2.443-1.01-5.188-1.009-7.634,0l-20.397,8.424-20.397-8.424c-2.445-1.009-5.189-1.01-7.635,0l-20.395,8.423-20.399-8.424c-2.444-1.009-5.189-1.009-7.634,0l-20.397,8.424-20.397-8.424c-2.444-1.009-5.188-1.01-7.635,0l-20.399,8.424-20.398-8.424c-2.445-1.009-5.189-1.009-7.635,3.33067e-16l-20.891,8.629-24.319-7.479c-3.542-1.089-7.393-0.132-10.01,2.487-2.618,2.619-3.575,6.47-2.487,10.01l7.48,24.323-8.629,20.902c-1.009,2.444-1.009,5.188 3.33067e-16,7.632l8.424,20.403-8.424,20.401c-1.009,2.444-1.009,5.188 0,7.633l8.424,20.402-8.424,20.401c-1.009,2.444-1.009,5.189 0,7.633l8.424,20.398-8.424,20.396c-1.009,2.445-1.009,5.19 0,7.635l8.424,20.395-8.424,20.398c-1.009,2.444-1.009,5.189 0,7.634l8.424,20.398-8.424,20.398c-1.009,2.444-1.009,5.189 0,7.634l8.424,20.397-8.424,20.398c-1.009,2.444-1.009,5.189 0,7.634l8.629,20.892-7.479,24.317c-1.088,3.54-0.131,7.392 2.487,10.01 2.619,2.619 6.469,3.577 10.011,2.487l24.323-7.48 20.9,8.629c2.445,1.009 5.189,1.009 7.633,0l20.403-8.424 20.401,8.424c2.443,1.009 5.189,1.009 7.633,0l20.401-8.424 20.401,8.424c2.443,1.009 5.188,1.009 7.634,0l20.397-8.423 20.396,8.423c2.445,1.01 5.189,1.01 7.635,0l20.395-8.423 20.398,8.423c1.223,0.505 2.521,0.757 3.817,0.757 1.297,0 2.595-0.252 3.817-0.757l20.398-8.423 20.397,8.423c2.446,1.011 5.19,1.01 7.635,0l20.396-8.423 20.399,8.423c2.444,1.011 5.189,1.01 7.634,0l20.892-8.628 24.317,7.479c3.543,1.089 7.402,0.129 10.021-2.498 2.618-2.626 3.568-6.487 2.467-10.029l-7.461-23.999 8.64-21.245c0.993-2.43 0.985-5.154-0.017-7.581zm-28.78,31.347l2.897,9.319-9.637-2.963c-2.22-0.682-4.608-0.572-6.757,0.315l-20.396,8.423-20.399-8.424c-2.442-1.009-5.188-1.009-7.634,0l-20.396,8.423-20.397-8.423c-2.445-1.01-5.189-1.009-7.635,0l-20.398,8.424-20.398-8.424c-2.445-1.009-5.189-1.009-7.635,0l-20.395,8.423-20.396-8.423c-2.444-1.01-5.188-1.01-7.635,0l-20.397,8.424-20.401-8.424c-2.443-1.009-5.189-1.009-7.633,0l-20.401,8.424-20.401-8.424c-2.442-1.009-5.188-1.009-7.633,0l-20.403,8.424-20.405-8.424c-1.22-0.503-2.517-0.757-3.816-0.757-0.989,0-1.98,0.147-2.939,0.442l-9.71,2.986 2.985-9.705c0.683-2.22 0.571-4.609-0.315-6.757l-8.424-20.396 8.424-20.398c1.009-2.444 1.009-5.189 0-7.634l-8.424-20.397 8.424-20.398c1.009-2.444 1.009-5.189 0-7.634l-8.424-20.398 8.424-20.399c1.01-2.445 1.009-5.19 0-7.634l-8.424-20.395 8.424-20.396c1.009-2.445 1.009-5.19 0-7.634l-8.424-20.398 8.424-20.401c1.009-2.444 1.009-5.188 0-7.633l-8.424-20.402 8.424-20.401c1.009-2.444 1.009-5.189 0-7.633l-8.425-20.403 8.425-20.406c0.887-2.147 0.998-4.535 0.315-6.756l-2.986-9.709 9.705,2.985c2.219,0.683 4.609,0.571 6.757-0.316l20.396-8.424 20.397,8.424c2.446,1.01 5.19,1.009 7.635,0l20.397-8.424 20.397,8.424c2.445,1.009 5.189,1.009 7.635,0l20.397-8.424 20.399,8.424c2.443,1.01 5.188,1.01 7.634,0l20.395-8.423 20.397,8.424c2.444,1.009 5.188,1.01 7.635,0l20.397-8.424 20.4,8.424c2.443,1.01 5.189,1.009 7.633,0l20.402-8.424 20.401,8.424c2.443,1.01 5.189,1.009 7.633,0l20.402-8.424 20.406,8.425c2.147,0.886 4.536,0.998 6.756,0.315l9.709-2.986-2.985,9.704c-0.683,2.22-0.571,4.61 0.315,6.757l8.424,20.397-8.424,20.398c-1.009,2.445-1.009,5.189 0,7.634l8.424,20.397-8.424,20.398c-1.009,2.444-1.009,5.189 0,7.634l8.424,20.399-8.424,20.399c-1.009,2.445-1.009,5.19 0.001,7.634l8.423,20.394-8.424,20.397c-1.009,2.444-1.009,5.189 0,7.634l8.424,20.398-8.424,20.401c-1.009,2.445-1.009,5.189 0,7.633l8.424,20.401-8.424,20.401c-1.009,2.444-1.009,5.188 0,7.633l8.437,20.432-8.445,20.766c-0.873,2.144-0.974,4.524-0.286,6.735z"/>
  </g>
</svg>